HIERARCHY
ROOT Hips
{
	OFFSET 0.000000 0.000000 0.000000
	CHANNELS 6 Xposition Yposition Zposition Xrotation Yrotation Zrotation
	JOINT LeftUpLeg_virtual
	{
		OFFSET 0.000000 0.000000 0.000000
		CHANNELS 3 Xrotation Yrotation Zrotation
		JOINT LeftUpLeg
		{
			OFFSET 10.205400 -3.823500 0.155100
			CHANNELS 3 Xrotation Yrotation Zrotation
			JOINT LeftLeg
			{
				OFFSET 0.708757 -12.982077 0.567790
				CHANNELS 3 Xrotation Yrotation Zrotation
				JOINT LeftFoot
				{
					OFFSET -0.708756 -10.717838 -2.184338
					CHANNELS 3 Xrotation Yrotation Zrotation
					JOINT LeftToeBase
					{
						OFFSET 0.108149 -7.191104 7.560241
						CHANNELS 3 Xrotation Yrotation Zrotation
						JOINT LeftToe_End
						{
							OFFSET 0.070230 0.081724 4.490308
							CHANNELS 3 Xrotation Yrotation Zrotation
							End Site
							{
								OFFSET 0 0 0
							}
						}
					}
				}
			}
		}
	}
	JOINT RightUpLeg_virtual
	{
		OFFSET 0.000000 0.000000 0.000000
		CHANNELS 3 Xrotation Yrotation Zrotation
		JOINT RightUpLeg
		{
			OFFSET -10.205400 -3.823500 0.005500
			CHANNELS 3 Xrotation Yrotation Zrotation
			JOINT RightLeg
			{
				OFFSET -0.708756 -12.982134 0.610632
				CHANNELS 3 Xrotation Yrotation Zrotation
				JOINT RightFoot
				{
					OFFSET 0.708754 -10.717769 -1.945823
					CHANNELS 3 Xrotation Yrotation Zrotation
					JOINT RightToeBase
					{
						OFFSET -0.108140 -7.191069 7.372968
						CHANNELS 3 Xrotation Yrotation Zrotation
						JOINT RightToe_End
						{
							OFFSET -0.070227 0.081735 4.479403
							CHANNELS 3 Xrotation Yrotation Zrotation
							End Site
							{
								OFFSET 0 0 0
							}
						}
					}
				}
			}
		}
	}
	JOINT Spine_virtual
	{
		OFFSET 0.000000 0.000000 0.000000
		CHANNELS 3 Xrotation Yrotation Zrotation
		JOINT Spine
		{
			OFFSET 0.000000 6.876099 0.125700
			CHANNELS 3 Xrotation Yrotation Zrotation
			JOINT Spine1
			{
				OFFSET 0.000000 5.730043 0.104720
				CHANNELS 3 Xrotation Yrotation Zrotation
				JOINT Spine1_split
				{
					OFFSET 0.000000 5.730043 0.104720
					CHANNELS 3 Xrotation Yrotation Zrotation
					JOINT Spine2
					{
						OFFSET 0.000000 5.730043 0.104720
						CHANNELS 3 Xrotation Yrotation Zrotation
						JOINT Neck_virtual
						{
							OFFSET 0.000000 0.000000 0.000000
							CHANNELS 3 Xrotation Yrotation Zrotation
							JOINT Neck
							{
								OFFSET 0.000000 10.314075 0.188496
								CHANNELS 3 Xrotation Yrotation Zrotation
								JOINT Head
								{
									OFFSET 0.000000 7.643700 -2.377400
									CHANNELS 3 Xrotation Yrotation Zrotation
									JOINT HeadTop_End
									{
										OFFSET 0.000000 43.788605 -13.619600
										CHANNELS 3 Xrotation Yrotation Zrotation
										End Site
										{
											OFFSET 0 0 0
										}
									}
								}
							}
						}
						JOINT LeftShoulder_virtual
						{
							OFFSET 0.000000 0.000000 0.000000
							CHANNELS 3 Xrotation Yrotation Zrotation
							JOINT LeftShoulder
							{
								OFFSET 2.196100 4.412489 0.087492
								CHANNELS 3 Xrotation Yrotation Zrotation
								JOINT LeftShoulder_split
								{
									OFFSET 2.196100 4.412489 0.087492
									CHANNELS 3 Xrotation Yrotation Zrotation
									JOINT LeftArm
									{
										OFFSET 8.771219 -2.981674 -0.026999
										CHANNELS 3 Xrotation Yrotation Zrotation
										JOINT LeftForeArm
										{
											OFFSET 8.512804 0.000000 -0.000000
											CHANNELS 3 Xrotation Yrotation Zrotation
											JOINT LeftHand
											{
												OFFSET 18.484802 0.000000 -0.000000
												CHANNELS 3 Xrotation Yrotation Zrotation
												End Site
												{
													OFFSET 0 0 0
												}
											}
										}
									}
								}
							}
						}
						JOINT RightShoulder_virtual
						{
							OFFSET 0.000000 0.000000 0.000000
							CHANNELS 3 Xrotation Yrotation Zrotation
							JOINT RightShoulder
							{
								OFFSET -2.196100 4.412496 0.070690
								CHANNELS 3 Xrotation Yrotation Zrotation
								JOINT RightShoulder_split
								{
									OFFSET -2.196100 4.412496 0.070690
									CHANNELS 3 Xrotation Yrotation Zrotation
									JOINT RightArm
									{
										OFFSET -8.771282 -2.981682 -0.094208
										CHANNELS 3 Xrotation Yrotation Zrotation
										JOINT RightForeArm
										{
											OFFSET -8.494598 0.000000 0.000000
											CHANNELS 3 Xrotation Yrotation Zrotation
											JOINT RightHand
											{
												OFFSET -18.483803 0.000000 0.000001
												CHANNELS 3 Xrotation Yrotation Zrotation
												End Site
												{
													OFFSET 0 0 0
												}
											}
										}
									}
								}
							}
						}
					}
				}
			}
		}
	}
}
MOTION
Frames: 10
Frame Time: 0.03333333
0.063598 39.692112 1.093678 0.000000 0.000000 0.000000 -83.462979 -7.673855 -2.573292 5.540129 21.980292 15.621665 -3.006165 5.019205 3.784797 20.768283 28.897629 -29.942238 -5.757075 -0.105079 2.132397 0.000000 0.000000 0.000000 -85.521529 -4.884137 -1.249761 8.045276 -21.212448 -10.629578 -5.245776 -2.540276 -8.336195 32.020702 -31.883251 37.917717 -14.555524 -0.002811 -2.338491 0.000000 0.000000 0.000000 -83.786142 -7.713675 -3.767781 -1.275918 -2.312233 0.389189 -0.442472 -2.733268 0.725583 2.089365 3.249826 -0.538664 0.000000 0.000000 0.000000 -2.048835 -2.985505 0.464064 -13.598143 1.759522 0.171861 10.075407 -2.409882 3.786341 0.000000 0.000000 0.000000 -1.214880 -3.002590 1.160438 0.346684 3.374934 -2.753584 -2.325898 2.824741 -5.827610 41.908302 -32.772037 -47.418885 167.057124 -87.496806 167.356942 0.000000 0.000000 0.000000 -1.339911 -2.778960 0.758138 1.052176 -3.369972 13.230376 0.660637 2.953290 -0.240509 31.755076 34.548798 39.304447 173.337907 76.328040 -172.921129 0.000000 0.000000 0.000000 
0.082804 39.723309 1.123093 0.000000 0.000000 0.000000 -83.505271 -7.714843 -2.603919 5.414924 21.730337 15.648469 -2.781780 4.957210 3.820440 20.990280 28.856897 -29.922598 -5.534800 -0.073060 2.025295 0.000000 0.000000 0.000000 -85.534398 -4.794400 -1.183241 8.255469 -21.067327 -10.409101 -5.260400 -2.589470 -8.424618 31.647863 -32.080849 37.802741 -14.669564 0.057644 -2.440177 0.000000 0.000000 0.000000 -83.735046 -7.536760 -3.589673 -1.222002 -2.317411 0.528222 -0.314215 -2.700446 0.764180 1.923316 3.045113 -0.750266 0.000000 0.000000 0.000000 -2.009215 -2.967796 0.495521 -13.798846 2.027511 0.093748 10.241324 -2.087672 3.271365 0.000000 0.000000 0.000000 -0.989840 -2.973337 1.272024 0.178808 3.322262 -3.366930 -2.168642 3.548085 -5.055360 41.910249 -32.691293 -47.026081 164.424619 -88.077147 164.490312 0.000000 0.000000 0.000000 -1.069887 -2.706197 0.726725 1.119100 -3.192421 13.014695 0.847978 2.623563 -0.036338 29.697536 34.793366 39.488810 173.704292 75.206598 -173.345393 0.000000 0.000000 0.000000 
0.084145 39.776421 1.161930 0.000000 0.000000 0.000000 -83.637162 -7.686374 -2.536121 5.158504 21.487229 15.728076 -2.487281 4.900245 3.825407 21.171073 28.706076 -30.003317 -5.242595 -0.028959 1.857550 0.000000 0.000000 0.000000 -85.581177 -4.591345 -1.018992 8.421057 -20.607953 -10.159515 -5.112221 -2.655147 -8.578438 31.087913 -32.390208 37.418211 -14.716377 0.158759 -2.578000 0.000000 0.000000 0.000000 -83.760864 -7.415816 -3.449792 -1.033955 -2.339272 0.737766 0.079286 -2.669699 0.784303 1.713368 2.526639 -0.893952 0.000000 0.000000 0.000000 -1.689779 -2.957629 0.503043 -13.847794 2.279332 -0.301517 10.253722 -1.359086 2.189678 0.000000 0.000000 0.000000 -0.422154 -2.992554 1.320927 0.024438 3.354808 -4.308924 -2.117143 4.076624 -4.190923 40.445952 -32.206753 -47.356741 159.752059 -89.344489 159.686353 0.000000 0.000000 0.000000 -0.607183 -2.678379 0.655833 1.085053 -2.650673 12.687782 0.954376 2.348773 0.729476 25.840918 35.461502 39.752896 175.076436 74.105988 -174.976947 0.000000 0.000000 0.000000 
0.071762 39.832817 1.212830 0.000000 0.000000 0.000000 -83.821844 -7.600243 -2.376471 4.849892 21.327471 15.824015 -2.146312 4.822190 3.808110 21.201220 28.481144 -30.146481 -5.130847 0.008776 1.727651 0.000000 0.000000 0.000000 -85.676001 -4.370594 -0.774780 8.371668 -19.982606 -10.003432 -4.804416 -2.658462 -8.719064 30.551901 -32.615431 36.943438 -14.675300 0.275557 -2.708246 0.000000 0.000000 0.000000 -83.912986 -7.403602 -3.373064 -0.719425 -2.324223 0.932170 0.743181 -2.530213 0.768640 1.451310 1.815878 -0.820255 0.000000 0.000000 0.000000 -1.086096 -2.839082 0.452356 -13.668044 2.380964 -0.898009 10.095348 -0.357517 0.709609 0.000000 0.000000 0.000000 0.462022 -2.928905 1.306441 -0.087219 3.454481 -5.361807 -2.014900 4.058901 -3.253958 37.968397 -31.547729 -48.015304 -20.597873 -89.333533 -20.707986 0.000000 0.000000 0.000000 0.027708 -2.581266 0.540232 0.938314 -1.775005 12.306892 0.903895 2.307466 1.629245 20.598889 36.398208 40.254772 176.745461 73.153935 -177.016442 0.000000 0.000000 0.000000 
0.054319 39.882225 1.274090 0.000000 0.000000 0.000000 -84.025465 -7.504967 -2.148304 4.548579 21.246675 15.921629 -1.835411 4.731709 3.788935 20.960196 28.285632 -30.212157 -5.198986 0.022239 1.685347 0.000000 0.000000 0.000000 -85.839837 -4.216872 -0.508627 8.096517 -19.398162 -9.958240 -4.449501 -2.572254 -8.815805 30.175936 -32.656371 36.508953 -14.532066 0.377021 -2.789515 0.000000 0.000000 0.000000 -84.218883 -7.523464 -3.363708 -0.284595 -2.193905 1.013435 1.706142 -2.162613 0.720082 1.256406 1.202685 -0.570181 0.000000 0.000000 0.000000 -0.208079 -2.493692 0.343667 -13.181994 2.274383 -1.495065 9.818982 0.615281 -0.951493 0.000000 0.000000 0.000000 1.595993 -2.639907 1.224133 -0.138743 3.534256 -6.310949 -1.620790 3.472099 -2.492690 35.177376 -30.973658 -48.516924 -26.297212 -88.409593 -26.405899 0.000000 0.000000 0.000000 0.845398 -2.297426 0.374092 0.700619 -0.728017 11.979356 0.573016 2.284947 2.236278 14.327457 37.194044 41.239169 178.327428 72.001559 -179.003084 0.000000 0.000000 0.000000 
0.022222 39.920509 1.353493 0.000000 0.000000 0.000000 -84.225884 -7.432762 -1.870768 4.287993 21.186309 16.010937 -1.611779 4.639766 3.783075 20.278036 28.268493 -30.036314 -5.230179 0.005406 1.702784 0.000000 0.000000 0.000000 -85.970450 -4.148777 -0.224104 7.739799 -19.008220 -9.971638 -4.198114 -2.411988 -8.866904 29.851574 -32.565983 36.096255 -14.279958 0.453112 -2.808876 0.000000 0.000000 0.000000 -84.588170 -7.700079 -3.399632 0.233598 -1.868382 0.942186 2.972355 -1.496627 0.644518 1.030810 0.809905 -0.344040 0.000000 0.000000 0.000000 0.959017 -1.855948 0.193377 -12.286534 1.880187 -2.005339 9.515933 1.281213 -2.582468 0.000000 0.000000 0.000000 2.936048 -2.044441 1.092185 -0.126590 3.533943 -6.941384 -0.974969 2.558366 -1.901370 32.603939 -30.887604 -48.364945 -34.072665 -88.162081 -34.154013 0.000000 0.000000 0.000000 1.893141 -1.725157 0.180955 0.404268 0.383427 11.770996 0.186472 2.242107 2.586997 7.409776 37.458745 42.933442 179.330769 70.213375 179.625560 0.000000 0.000000 0.000000 
-0.021902 39.953461 1.407789 0.000000 0.000000 0.000000 -84.362562 -7.366292 -1.573043 4.128513 21.072686 16.082491 -1.553947 4.523868 3.807274 19.134172 28.475079 -29.613019 -5.120142 -0.036722 1.753111 0.000000 0.000000 0.000000 -86.054762 -4.135676 0.065129 7.468475 -18.877033 -9.990058 -4.086576 -2.237043 -8.884458 29.432320 -32.451335 35.658768 -13.922851 0.495211 -2.760187 0.000000 0.000000 0.000000 -84.959862 -7.861298 -3.456278 0.813631 -1.348538 0.709071 4.538337 -0.551903 0.546639 0.947436 0.602750 -0.075040 0.000000 0.000000 0.000000 2.422980 -0.940360 0.016285 -11.012845 1.274952 -2.359797 9.325918 1.475412 -4.035557 0.000000 0.000000 0.000000 4.441452 -1.164973 0.913603 -0.054715 3.382096 -7.140769 -0.323826 1.638700 -1.803851 30.613915 -31.577641 -47.190095 -44.926338 -88.404436 -44.945005 0.000000 0.000000 0.000000 3.220821 -0.865214 -0.006027 0.097103 1.424288 11.735309 -0.113352 2.278603 2.769153 0.111226 36.805451 45.329104 179.698234 67.537375 179.015092 0.000000 0.000000 0.000000 
-0.069633 39.993149 1.443001 0.000000 0.000000 0.000000 -84.433419 -7.306381 -1.317810 4.114351 20.830595 16.171666 -1.659680 4.337785 3.846187 17.693429 28.851033 -29.101923 -4.954705 -0.091541 1.820515 0.000000 0.000000 0.000000 -86.102676 -4.122459 0.315972 7.371408 -19.011799 -9.990661 -4.081737 -2.087112 -8.860796 28.864185 -32.338057 35.218183 -13.444532 0.497115 -2.663599 0.000000 0.000000 0.000000 -85.227476 -8.007851 -3.551665 1.397963 -0.674232 0.376439 6.402799 0.563993 0.436645 0.992652 0.519052 0.130589 0.000000 0.000000 0.000000 4.192465 0.171215 -0.158115 -9.450135 0.577011 -2.579107 9.387840 1.251204 -5.255761 0.000000 0.000000 0.000000 6.138216 -0.087256 0.706073 0.073423 3.117601 -6.916976 0.289742 0.918297 -2.227128 29.262402 -33.067538 -44.952648 -51.414775 -88.710319 -51.321707 0.000000 0.000000 0.000000 4.861581 0.205285 -0.163598 -0.159957 2.328740 11.922489 -0.258732 2.316144 2.905633 -6.956987 35.081559 48.140379 179.618143 64.075623 179.020542 0.000000 0.000000 0.000000 
-0.104936 40.045914 1.452477 0.000000 0.000000 0.000000 -84.424178 -7.279679 -1.188056 4.134947 20.467929 16.344055 -1.792856 4.040232 3.890067 16.257887 29.264973 -28.675880 -4.867301 -0.148224 1.895572 0.000000 0.000000 0.000000 -86.082500 -4.051799 0.493875 7.420942 -19.330209 -10.023113 -4.148186 -1.912918 -8.767399 28.149586 -32.153177 34.921569 -12.947197 0.463110 -2.572884 0.000000 0.000000 0.000000 -85.296338 -8.100526 -3.676962 1.931185 0.047572 0.060505 8.496934 1.710171 0.309828 1.109625 0.528211 0.220912 0.000000 0.000000 0.000000 6.204755 1.309038 -0.327766 -7.721804 -0.094331 -2.739908 9.895254 0.749988 -6.243042 0.000000 0.000000 0.000000 8.024189 1.022124 0.475996 0.252828 2.873859 -6.365224 1.073825 0.323565 -2.734884 28.177449 -35.234098 -41.949523 -43.413881 -88.846308 -43.151202 0.000000 0.000000 0.000000 6.796533 1.330598 -0.288010 -0.336773 3.035924 12.219473 -0.538483 2.349056 2.964505 -12.992183 32.713871 50.756276 179.297561 60.331799 179.467769 0.000000 0.000000 0.000000 
-0.112038 40.105347 1.454094 0.000000 0.000000 0.000000 -84.326117 -7.224760 -1.196392 4.067385 20.016295 16.619061 -1.793485 3.676525 3.953666 15.042479 29.626246 -28.327472 -4.883750 -0.206325 1.945925 0.000000 0.000000 0.000000 -86.003912 -3.868712 0.582994 7.536360 -19.746500 -10.157644 -4.192560 -1.689229 -8.605453 27.417904 -31.876274 34.899880 -12.515015 0.402551 -2.527008 0.000000 0.000000 0.000000 -85.160513 -8.082710 -3.792661 2.406038 0.690374 -0.143581 10.723833 2.748740 0.154130 1.253780 0.584861 0.173469 0.000000 0.000000 0.000000 8.372600 2.329614 -0.489157 -5.929639 -0.622075 -2.956465 10.997232 0.066621 -7.026790 0.000000 0.000000 0.000000 10.074147 2.022434 0.229809 0.450512 2.802880 -5.657949 1.910129 -0.113335 -3.118807 27.153053 -37.782154 -38.631133 -25.874891 -88.530467 -25.367024 0.000000 0.000000 0.000000 8.961749 2.352972 -0.407700 -0.425715 3.462277 12.571784 -0.903312 2.507851 2.826066 -17.311003 30.413897 52.624623 178.985039 56.949407 -179.965185 0.000000 0.000000 0.000000 
